<?xml version="1.0" standalone="no"?>
<!DOCTYPE svg PUBLIC "-//W3C//DTD SVG 20010904//EN"
 "http://www.w3.org/TR/2001/REC-SVG-20010904/DTD/svg10.dtd">
<svg version="1.0" xmlns="http://www.w3.org/2000/svg"
 width="400.000000pt" height="400.000000pt" viewBox="0 0 400.000000 400.000000"
 preserveAspectRatio="xMidYMid meet">

<g transform="translate(0.000000,400.000000) scale(0.100000,-0.100000)"
fill="#000000" stroke="none">
<path d="M360 2250 l0 -1660 458 0 457 0 89 53 c373 219 549 647 441 1073 -72
285 -286 529 -560 639 -84 33 -230 65 -302 65 l-53 0 0 186 0 187 58 -7 c169
-20 162 -21 231 21 131 78 234 211 277 358 23 80 23 230 0 310 -42 143 -147
285 -259 353 -30 18 -88 44 -127 58 -70 23 -79 24 -391 24 l-319 0 0 -1660z"/>
<path d="M1430 3905 c0 -3 21 -33 46 -67 102 -138 144 -266 144 -433 0 -119
-23 -221 -71 -316 -66 -132 -181 -248 -307 -310 l-65 -32 85 -32 c114 -44 158
-67 258 -136 143 -97 285 -257 374 -420 177 -323 184 -761 18 -1099 -72 -147
-239 -345 -377 -447 l-30 -22 1068 -1 1067 0 -2 1658 -3 1657 -1102 3 c-607 1
-1103 0 -1103 -3z"/>
<path d="M360 300 l0 -210 153 0 c234 1 267 15 267 115 0 37 -6 60 -19 76 -17
22 -18 26 -4 41 38 42 23 155 -23 177 -16 7 -89 11 -199 11 l-175 0 0 -210z
m328 93 l3 -42 -43 -6 c-24 -3 -79 -5 -123 -3 l-80 3 -3 48 -3 48 123 -3 123
-3 3 -42z m-12 -121 c15 -10 24 -52 18 -79 -6 -22 -9 -23 -130 -23 l-124 0 0
48 c0 27 3 52 7 55 9 9 215 9 229 -1z"/>
<path d="M1076 488 c-7 -13 -41 -72 -74 -133 -33 -60 -76 -140 -96 -177 -20
-36 -36 -71 -36 -78 0 -7 14 -10 38 -8 33 3 40 8 62 50 l25 48 130 0 130 0 25
-48 c23 -44 28 -47 68 -50 23 -2 42 0 42 4 0 5 -51 99 -112 211 l-113 203 -37
0 c-28 0 -41 -6 -52 -22z m99 -150 c19 -37 35 -70 35 -73 0 -3 -38 -5 -85 -5
-47 0 -85 2 -85 5 0 3 18 42 41 87 46 91 40 92 94 -14z"/>
<path d="M1420 503 c1 -5 45 -57 100 -117 l99 -109 3 -91 3 -91 40 0 40 0 1
90 0 89 80 89 c43 49 89 102 102 118 l23 29 -50 0 -50 0 -68 -85 c-37 -46 -71
-84 -74 -85 -4 0 -40 38 -80 85 -73 83 -75 84 -121 85 -27 0 -48 -3 -48 -7z"/>
<path d="M2015 498 c-3 -8 -4 -101 -3 -208 l3 -195 40 0 40 0 5 82 5 82 125
-85 c123 -83 125 -84 187 -84 35 0 63 3 63 8 -1 4 -70 51 -155 106 -85 54
-155 102 -155 106 0 4 64 49 142 101 l141 94 -60 3 -60 3 -114 -80 -114 -80
-5 77 -5 77 -38 3 c-24 2 -39 -1 -42 -10z"/>
<path d="M2703 412 c-29 -53 -80 -148 -114 -210 l-61 -113 43 3 c41 3 46 6 69
50 l25 48 130 0 130 0 25 -48 c23 -44 28 -47 68 -50 23 -2 42 0 42 3 0 4 -51
98 -112 211 l-113 204 -40 0 -40 0 -52 -98z m142 -74 c19 -37 35 -70 35 -73 0
-3 -38 -5 -85 -5 -47 0 -85 2 -85 5 0 3 18 42 41 87 46 91 40 92 94 -14z"/>
<path d="M3170 300 l0 -210 40 0 40 0 0 80 0 80 51 0 c50 0 53 -1 136 -80 l84
-80 55 0 c31 0 54 4 52 9 -1 4 -39 39 -82 77 l-79 69 42 6 c58 8 74 27 79 98
11 153 -1 161 -243 161 l-175 0 0 -210z m328 78 l3 -58 -126 0 -125 0 0 60 0
61 123 -3 122 -3 3 -57z"/>
</g>
</svg>
