<?xml version="1.0" standalone="no"?>
<!DOCTYPE svg PUBLIC "-//W3C//DTD SVG 20010904//EN"
 "http://www.w3.org/TR/2001/REC-SVG-20010904/DTD/svg10.dtd">
<svg version="1.0" xmlns="http://www.w3.org/2000/svg"
 width="2816.000000pt" height="1536.000000pt" viewBox="0 0 2816.000000 1536.000000"
 preserveAspectRatio="xMidYMid meet">

<g transform="translate(0.000000,1536.000000) scale(0.100000,-0.100000)"
fill="#000000" stroke="none">
<path d="M3920 7680 l0 -3540 865 0 865 0 0 1045 0 1045 658 0 c831 0 1016 15
1361 111 644 178 1153 568 1469 1126 97 170 218 500 251 687 11 57 21 85 21
55 0 -8 0 -926 0 -2042 l0 -2027 815 2 815 3 0 1923 c0 1057 2 1922 4 1922 3
0 22 -30 42 -67 58 -107 339 -606 474 -843 67 -118 154 -271 193 -340 38 -69
125 -222 192 -340 67 -118 164 -289 215 -380 51 -91 171 -303 267 -472 l175
-308 447 0 446 0 130 228 c71 125 145 256 165 292 20 36 90 160 155 275 65
116 185 327 265 470 81 143 236 418 345 610 108 193 222 395 252 450 30 55 74
132 98 170 23 39 63 109 89 158 26 48 50 87 54 87 4 0 7 -177 7 -392 0 -216 1
-1080 3 -1920 l2 -1528 820 0 820 0 -2 3538 -3 3537 -737 3 -738 2 -23 -37
c-13 -21 -63 -110 -112 -198 -48 -88 -121 -218 -162 -288 -40 -71 -73 -131
-73 -133 0 -2 -11 -22 -24 -43 -22 -34 -90 -155 -227 -401 -80 -145 -170 -306
-294 -525 -65 -115 -141 -253 -170 -305 -28 -52 -79 -142 -112 -200 -67 -117
-124 -219 -501 -890 -63 -113 -129 -230 -147 -260 -17 -30 -55 -98 -84 -150
-29 -52 -92 -166 -140 -254 -48 -87 -92 -158 -97 -159 -9 0 -46 61 -174 288
-37 66 -105 185 -150 265 -45 80 -123 217 -173 305 -97 172 -545 976 -722
1295 -59 107 -124 224 -145 260 -20 36 -61 108 -90 160 -29 52 -77 138 -107
190 -30 52 -100 176 -155 275 -55 99 -131 234 -167 300 -37 66 -116 207 -176
313 l-109 192 -738 0 -738 0 2 -995 c2 -547 0 -995 -3 -995 -3 0 -16 51 -29
113 -117 575 -437 1075 -900 1407 -334 239 -675 373 -1125 442 l-150 23 -1642
3 -1643 2 0 -3540z m3082 1980 c134 -28 232 -69 328 -140 143 -106 243 -264
296 -465 22 -82 27 -130 31 -268 8 -238 -22 -398 -104 -562 -116 -230 -343
-390 -615 -435 -38 -6 -307 -10 -675 -10 l-613 0 0 948 c0 522 2 951 4 953 2
2 283 3 625 2 585 -2 626 -4 723 -23z"/>
<path d="M16950 7680 l0 -3540 815 0 815 0 -2 1920 c-2 1056 0 1920 3 1920 3
0 24 -33 46 -72 22 -40 99 -176 170 -303 72 -126 181 -320 243 -430 62 -110
129 -229 150 -265 21 -36 113 -198 205 -360 287 -506 434 -766 590 -1040 l152
-265 448 0 449 0 53 90 c29 50 76 133 104 185 29 52 99 178 157 280 58 102
165 291 237 420 72 129 171 305 220 390 85 149 218 385 600 1058 97 172 179
311 181 309 2 -2 4 -866 4 -1920 l0 -1917 825 0 825 0 0 3540 0 3540 -740 0
-740 0 -24 -37 c-19 -32 -137 -237 -226 -398 -12 -22 -48 -85 -80 -140 -31
-55 -104 -183 -160 -285 -57 -102 -120 -214 -140 -250 -20 -36 -115 -207 -212
-380 -97 -173 -222 -396 -278 -495 -57 -99 -126 -223 -155 -275 -29 -52 -86
-156 -127 -230 -90 -163 -200 -360 -278 -495 -31 -55 -101 -179 -155 -275 -54
-96 -125 -224 -160 -285 -34 -60 -86 -154 -115 -207 -29 -54 -56 -98 -59 -98
-6 0 -91 148 -271 470 -51 91 -123 219 -160 285 -37 66 -100 179 -140 250 -86
155 -216 386 -339 603 -84 147 -153 272 -441 787 -64 116 -172 309 -240 430
-67 121 -150 270 -183 330 -33 61 -95 171 -137 245 -43 74 -117 206 -165 293
l-88 157 -738 0 -739 0 0 -3540z"/>
</g>
</svg>
