<?xml version="1.0" standalone="no"?>
<!DOCTYPE svg PUBLIC "-//W3C//DTD SVG 20010904//EN"
 "http://www.w3.org/TR/2001/REC-SVG-20010904/DTD/svg10.dtd">
<svg version="1.0" xmlns="http://www.w3.org/2000/svg"
 width="1910.000000pt" height="794.000000pt" viewBox="0 0 1910.000000 794.000000"
 preserveAspectRatio="xMidYMid meet">

<g transform="translate(0.000000,794.000000) scale(0.100000,-0.100000)"
fill="#000000" stroke="none">
<path d="M80 6750 l0 -1140 333 2 332 3 2 295 3 295 312 6 c172 3 345 11 383
18 236 39 412 122 553 262 105 104 162 203 203 354 33 121 33 341 0 445 -38
124 -85 210 -160 297 -115 132 -254 215 -464 276 -69 20 -98 21 -784 24 l-713
4 0 -1141z m1233 615 c32 -8 82 -31 112 -50 95 -60 131 -144 123 -284 -6 -97
-42 -168 -113 -222 -88 -67 -117 -73 -417 -77 l-268 -3 0 325 0 326 253 0
c192 0 267 -4 310 -15z"/>
<path d="M5453 7769 c-30 -15 -48 -33 -62 -63 -36 -73 -22 -137 43 -194 31
-27 44 -32 89 -32 74 0 117 24 146 83 69 140 -73 277 -216 206z"/>
<path d="M9437 7494 c-4 -4 -7 -83 -7 -176 l0 -168 -130 0 -130 0 0 -95 0 -95
130 0 130 0 0 -486 c0 -457 1 -492 21 -575 24 -104 60 -164 130 -215 79 -58
138 -76 269 -81 109 -5 120 -4 210 26 52 18 106 40 119 50 l24 18 -36 79 c-20
43 -40 79 -44 78 -4 0 -35 -13 -67 -29 -50 -24 -73 -28 -145 -29 -79 -1 -91 2
-141 30 -45 26 -60 42 -85 89 l-30 59 -3 493 -3 493 225 0 225 0 3 88 c2 48 2
90 0 95 -2 4 -104 7 -227 7 l-225 0 -2 173 -3 172 -101 3 c-55 1 -103 0 -107
-4z"/>
<path d="M3208 7150 c-174 -30 -278 -88 -371 -205 -22 -27 -42 -50 -45 -50 -3
0 -4 55 -3 123 l2 122 -111 0 c-98 0 -111 -2 -106 -16 3 -9 6 -353 6 -765 l0
-749 110 0 110 0 0 438 c0 489 4 526 65 648 48 95 120 166 215 212 67 32 85
37 173 40 l98 4 -3 102 -3 101 -45 2 c-25 0 -66 -3 -92 -7z"/>
<path d="M4150 7153 c-81 -13 -193 -49 -251 -79 -40 -21 -104 -70 -160 -123
-147 -138 -213 -275 -241 -496 -20 -163 25 -353 118 -502 148 -238 366 -353
668 -353 212 0 392 70 526 204 192 193 273 449 225 711 -21 118 -32 151 -83
250 -36 68 -66 109 -127 170 -44 45 -100 95 -125 111 -60 40 -159 79 -253 98
-70 15 -234 20 -297 9z m223 -194 c106 -16 221 -74 286 -144 60 -66 111 -154
142 -245 28 -83 31 -262 6 -357 -54 -206 -208 -363 -395 -402 -86 -18 -231
-14 -303 9 -175 54 -321 211 -364 391 -19 81 -19 245 -1 324 54 227 218 389
432 424 71 12 116 12 197 0z"/>
<path d="M6590 7151 c-80 -15 -201 -61 -254 -96 -239 -160 -358 -385 -357
-679 0 -236 77 -417 245 -574 87 -80 210 -148 326 -179 95 -26 381 -25 465 0
118 37 206 88 288 167 l78 75 -66 68 -65 68 -68 -61 c-37 -34 -88 -73 -113
-85 -166 -85 -415 -77 -592 17 -68 37 -155 119 -190 180 -32 56 -77 188 -77
227 l0 31 626 0 627 0 -5 128 c-5 108 -10 141 -37 222 -51 152 -109 238 -224
335 -136 114 -248 156 -437 161 -69 1 -145 -1 -170 -5z m266 -196 c203 -39
349 -207 389 -447 l6 -38 -521 0 -522 0 7 52 c10 71 65 198 115 264 68 90 152
143 266 168 90 19 165 19 260 1z"/>
<path d="M8260 7140 c-47 -11 -123 -38 -170 -61 -71 -35 -102 -59 -186 -143
-85 -85 -108 -114 -143 -187 -120 -249 -106 -557 36 -793 20 -33 76 -99 123
-146 99 -100 201 -157 340 -191 73 -18 106 -20 225 -16 122 4 151 9 227 35 47
17 108 43 134 58 58 34 180 147 200 185 14 28 13 28 -58 83 l-71 56 -71 -68
c-118 -111 -219 -152 -377 -152 -169 0 -275 40 -387 144 -118 110 -173 244
-175 421 -1 131 12 192 64 301 82 174 214 268 412 294 178 24 336 -27 450
-146 34 -35 65 -64 68 -64 14 0 159 112 159 123 0 7 -38 49 -86 94 -141 137
-260 182 -489 189 -114 3 -156 0 -225 -16z"/>
<path d="M5417 7144 c-4 -4 -7 -379 -7 -833 0 -872 -1 -895 -46 -972 -31 -53
-98 -92 -165 -97 -62 -5 -154 17 -207 50 -31 19 -32 19 -38 1 -7 -18 -51 -129
-60 -148 -6 -13 53 -47 121 -70 149 -50 305 -34 423 45 72 48 122 118 160 221
l27 74 3 863 3 862 -90 0 c-49 0 -96 2 -103 5 -8 3 -17 2 -21 -1z"/>
<path d="M80 4030 l0 -1139 303 -3 c166 -2 306 0 310 3 5 3 7 268 5 588 -2
319 0 581 5 581 4 0 7 -4 7 -8 0 -5 48 -85 106 -178 59 -93 141 -225 184 -294
42 -69 95 -154 118 -190 23 -36 70 -112 105 -170 l63 -105 167 -3 166 -2 27
47 c15 27 60 100 99 163 40 63 106 171 147 240 41 69 111 181 154 250 44 69
97 155 119 193 21 37 42 67 45 67 3 0 4 -265 2 -590 l-3 -590 311 0 310 0 0
1134 c0 898 -3 1135 -12 1139 -7 2 -134 4 -282 3 l-270 -1 -103 -165 c-56 -91
-132 -212 -167 -270 -35 -58 -101 -166 -146 -240 -46 -74 -151 -246 -233 -382
-82 -137 -152 -248 -156 -248 -3 0 -18 19 -32 43 -15 23 -56 89 -91 147 -109
175 -590 953 -607 982 -9 14 -29 48 -45 75 -16 26 -34 51 -40 55 -6 4 -136 8
-288 8 l-278 0 0 -1140z"/>
<path d="M18320 4590 l0 -170 -125 0 -125 0 0 -95 0 -95 125 0 125 0 0 -482
c1 -520 4 -558 53 -654 30 -60 114 -139 175 -165 136 -59 346 -46 485 29 57
31 57 37 7 144 l-32 68 -36 -30 c-78 -62 -236 -76 -324 -28 -35 19 -49 36 -78
93 l-34 70 -4 442 c-2 244 -1 458 2 478 l7 35 224 0 225 0 0 95 0 95 -224 0
-223 0 -6 68 c-4 37 -7 113 -7 170 l0 102 -105 0 -105 0 0 -170z"/>
<path d="M3705 4430 c-94 -10 -212 -43 -288 -81 -67 -34 -187 -115 -187 -127
0 -6 85 -148 95 -160 2 -2 29 17 60 42 119 98 239 138 420 139 169 2 258 -32
343 -128 56 -64 82 -138 85 -239 l2 -81 -310 -6 c-270 -5 -320 -9 -387 -27
-190 -51 -291 -139 -339 -293 -37 -119 -16 -250 59 -365 95 -145 288 -224 517
-211 181 11 287 53 399 159 39 37 72 68 74 68 2 0 2 -17 1 -37 -1 -21 -2 -69
-1 -106 l2 -68 101 3 102 3 3 325 c1 179 -1 422 -6 540 -7 190 -11 223 -33
286 -33 96 -52 129 -100 181 -137 148 -347 211 -612 183z m536 -909 c-4 -171
-34 -248 -128 -330 -57 -51 -77 -62 -159 -89 -133 -44 -297 -37 -403 16 -155
79 -199 272 -89 397 89 101 150 114 507 112 l275 -2 -3 -104z"/>
<path d="M5560 4434 c-71 -14 -177 -47 -219 -68 -67 -34 -145 -98 -183 -151
-18 -24 -36 -44 -40 -45 -5 0 -8 56 -8 125 l0 125 -105 0 -105 0 0 -755 0
-755 105 0 105 0 0 378 c1 395 6 474 41 605 39 144 148 265 286 317 73 28 201
37 285 20 170 -33 265 -124 308 -296 19 -73 20 -117 23 -549 l2 -470 108 -3
108 -3 -3 533 -3 533 -33 85 c-72 189 -199 309 -377 355 -61 16 -249 28 -295
19z"/>
<path d="M7128 4429 c-147 -21 -282 -74 -394 -154 -73 -52 -73 -40 -1 -153
l40 -62 26 23 c41 37 117 86 174 111 75 34 149 47 273 48 124 1 192 -14 265
-61 99 -62 164 -197 157 -326 l-3 -60 -310 -6 c-279 -5 -318 -8 -390 -28 -160
-45 -249 -113 -308 -239 -30 -62 -32 -75 -32 -172 1 -139 22 -196 112 -291 77
-81 167 -130 281 -154 135 -28 306 -13 424 36 61 26 160 93 202 138 38 39 48
39 45 -1 -1 -18 -1 -63 0 -100 l1 -68 105 0 105 0 0 500 c0 558 -3 596 -65
725 -107 224 -388 341 -707 294z m552 -877 c0 -155 -30 -246 -114 -338 -89
-100 -230 -150 -396 -141 -150 8 -244 55 -295 149 -26 46 -29 64 -30 133 0
119 39 181 148 234 71 34 116 39 410 40 l277 1 0 -78z"/>
<path d="M8841 4429 c-266 -41 -494 -236 -578 -496 -35 -107 -43 -293 -18
-408 45 -210 180 -376 380 -471 115 -55 188 -74 300 -81 206 -12 389 52 524
183 l73 72 -4 -187 c-6 -207 -13 -239 -75 -329 -62 -91 -181 -159 -321 -183
-89 -16 -269 -5 -357 21 -96 28 -218 88 -291 144 -34 25 -64 46 -67 46 -7 0
-107 -165 -107 -176 0 -5 27 -28 60 -52 116 -84 300 -152 482 -178 104 -15
138 -16 232 -6 328 35 527 167 616 411 49 133 51 178 48 961 -3 683 -4 725
-20 724 -10 -1 -59 -2 -109 -3 l-92 -1 7 -125 c4 -69 5 -125 3 -125 -2 0 -20
21 -40 46 -71 91 -188 163 -322 199 -75 20 -240 27 -324 14z m252 -193 c177
-34 328 -156 387 -314 89 -235 50 -453 -109 -612 -163 -163 -476 -192 -677
-62 -169 110 -252 278 -241 487 6 119 30 191 93 281 81 116 191 189 324 218
85 19 132 19 223 2z"/>
<path d="M10725 4431 c-241 -39 -441 -181 -550 -391 -53 -103 -72 -171 -84
-301 -16 -169 11 -305 90 -459 85 -165 239 -290 439 -356 80 -26 96 -28 260
-29 143 0 187 3 240 19 74 22 188 76 240 113 51 37 120 105 120 118 0 5 -30
41 -65 79 l-65 68 -69 -64 c-82 -76 -148 -110 -253 -132 -142 -29 -295 -12
-416 47 -142 69 -266 239 -297 409 l-7 38 628 2 629 3 3 60 c2 33 -4 103 -13
155 -51 300 -252 537 -512 604 -73 19 -248 28 -318 17z m274 -210 c85 -26 137
-60 204 -130 60 -63 108 -150 133 -243 26 -98 83 -88 -507 -88 l-521 0 7 37
c30 159 153 331 285 398 110 56 270 66 399 26z"/>
<path d="M12515 4431 c-161 -27 -282 -95 -375 -212 l-40 -51 0 126 0 126 -105
0 -105 0 0 -755 0 -755 104 0 104 0 5 428 c3 384 6 436 24 517 25 112 60 183
124 250 120 127 313 168 484 104 74 -27 159 -109 198 -189 54 -110 58 -156 63
-650 l5 -455 104 -3 104 -3 3 448 c4 425 5 452 26 528 40 144 132 263 246 316
51 24 83 31 154 36 227 15 378 -89 438 -303 14 -50 18 -130 21 -541 l5 -483
109 0 109 0 0 483 c0 281 -4 509 -10 547 -39 244 -198 426 -420 480 -80 20
-270 18 -350 -4 -128 -34 -265 -118 -353 -216 -26 -29 -49 -51 -50 -49 -2 2
-20 27 -40 55 -75 105 -179 177 -303 209 -71 18 -213 26 -279 16z"/>
<path d="M15265 4430 c-152 -22 -275 -87 -397 -210 -74 -75 -94 -102 -137
-192 -74 -151 -98 -286 -80 -460 21 -207 108 -376 260 -500 154 -126 304 -177
524 -178 222 0 408 68 548 200 l57 55 -70 71 -69 71 -43 -41 c-113 -108 -223
-154 -383 -163 -177 -10 -329 43 -440 151 -83 81 -165 247 -165 333 l0 23 627
2 627 3 -3 90 c-7 227 -71 390 -208 536 -162 172 -394 247 -648 209z m272
-204 c125 -33 248 -137 311 -262 19 -37 62 -175 62 -196 0 -5 -234 -8 -520 -8
-286 0 -520 3 -520 8 1 34 37 147 63 196 41 77 134 177 200 215 50 28 130 55
192 65 45 6 154 -3 212 -18z"/>
<path d="M17075 4426 c-150 -30 -238 -76 -339 -178 l-78 -79 7 126 7 126 -108
-3 -109 -3 0 -750 0 -750 107 -3 107 -3 3 448 c4 422 5 453 26 526 29 105 64
166 132 231 93 89 192 126 334 126 72 0 182 -22 226 -45 84 -44 148 -133 186
-261 15 -52 18 -119 21 -542 l4 -483 110 3 110 3 -1 499 c0 562 -1 570 -72
716 -69 144 -198 249 -349 285 -95 22 -241 27 -324 11z"/>
<path d="M80 1185 l0 -1134 306 -3 c168 -2 308 -1 310 2 3 2 5 261 4 575 -1
313 -1 574 -1 580 1 13 38 -42 141 -210 48 -77 110 -178 140 -225 29 -47 111
-181 182 -298 l130 -212 166 2 166 3 32 55 c40 70 294 488 364 600 29 47 80
129 112 182 32 54 63 100 68 103 6 4 10 -208 10 -574 l0 -581 310 0 310 0 0
1135 0 1135 -284 0 -285 0 -64 -107 c-35 -60 -119 -198 -187 -308 -67 -110
-166 -272 -220 -360 -53 -88 -135 -221 -180 -295 -46 -74 -97 -159 -114 -188
-24 -41 -33 -49 -42 -40 -15 16 -162 249 -339 538 -73 118 -156 253 -185 300
-29 47 -71 114 -93 150 -21 36 -71 119 -112 185 l-72 120 -287 3 -286 2 0
-1135z"/>
<path d="M6382 1780 c2 -247 1 -450 -2 -450 -3 0 -17 18 -33 39 -49 70 -171
152 -304 204 -52 20 -75 22 -233 21 -192 0 -214 -5 -367 -82 -372 -188 -508
-733 -283 -1128 61 -106 205 -236 320 -288 177 -80 386 -89 590 -24 107 34
238 128 303 218 17 24 18 22 14 -95 -2 -66 -2 -126 0 -132 3 -9 34 -13 108
-13 l103 0 5 32 c3 18 5 508 4 1088 l-2 1055 -113 3 -113 3 3 -451z m-425
-384 c216 -58 358 -215 408 -451 32 -151 15 -278 -55 -422 -42 -84 -61 -111
-116 -162 -79 -72 -143 -105 -244 -127 -135 -29 -313 0 -412 66 -200 134 -301
389 -253 636 57 289 261 472 530 473 50 1 113 -5 142 -13z"/>
<path d="M8917 2063 c-1 -1 -1 -454 1 -1007 l2 -1006 110 0 110 0 0 1004 0
1005 -111 3 c-61 2 -111 2 -112 1z"/>
<path d="M3861 1590 c-277 -58 -491 -249 -578 -515 -35 -108 -44 -320 -19
-446 54 -267 273 -502 539 -576 73 -20 276 -28 367 -14 327 50 571 282 636
605 22 105 14 288 -16 396 -55 196 -199 378 -371 470 -128 68 -189 83 -359 86
-85 2 -175 -1 -199 -6z m291 -191 c406 -84 589 -638 321 -967 -50 -62 -70 -79
-136 -123 -158 -103 -379 -115 -553 -29 -76 37 -179 131 -221 201 -109 182
-122 437 -32 625 62 130 215 254 355 288 72 18 195 20 266 5z"/>
<path d="M10100 1590 c-140 -26 -264 -94 -381 -210 -72 -71 -93 -101 -132
-180 -70 -141 -82 -197 -81 -375 1 -176 18 -255 86 -391 51 -104 131 -194 236
-267 153 -106 295 -144 512 -134 154 7 247 29 354 83 99 50 216 143 216 172 0
7 -30 43 -66 79 l-66 66 -46 -45 c-98 -94 -186 -138 -317 -158 -210 -32 -434
40 -555 178 -23 25 -56 78 -75 117 -33 69 -69 201 -59 217 3 4 293 8 645 8
l639 0 0 24 c0 137 -43 334 -98 441 -78 156 -225 285 -396 347 -73 27 -95 30
-226 33 -80 2 -165 0 -190 -5z m311 -200 c158 -48 291 -185 344 -353 42 -132
106 -117 -505 -117 l-530 0 6 28 c32 146 80 240 168 328 98 97 191 132 357
133 70 1 115 -4 160 -19z"/>
<path d="M7060 1067 c0 -583 2 -602 71 -738 44 -88 148 -188 243 -234 243
-117 572 -74 764 100 34 31 62 63 62 71 0 8 4 14 10 14 5 0 11 -49 12 -112 l3
-113 103 -3 102 -3 0 771 0 770 -107 0 -108 0 0 -463 c0 -513 -2 -537 -62
-647 -48 -88 -69 -113 -138 -165 -88 -66 -165 -89 -300 -89 -131 0 -196 19
-281 85 -65 50 -108 112 -136 199 -20 62 -22 86 -25 570 l-4 505 -105 3 -104
3 0 -524z"/>
</g>
</svg>
